<svg viewBox="0 0 192 43" xmlns="http://www.w3.org/2000/svg" data-logo="logo">
        <g transform="translate(0, 1) rotate(0)" id="logogram" style="opacity: 1;"><path fill="#00067F" d="M24.2071 0.429993L28.9214 4.35857L24.8473 7.75366C24.4764 8.0627 23.9378 8.0627 23.5669 7.75366L19.4928 4.35857L24.2071 0.429993Z"></path><path fill="#00067F" d="M23.5669 11.7844C23.9378 12.0935 24.4764 12.0935 24.8473 11.7844L31.3398 6.37397L35.0743 9.48605L26.7678 16.4081C25.2845 17.6443 23.1297 17.6443 21.6463 16.4081L13.3399 9.48605L17.0744 6.37397L23.5669 11.7844Z" clip-rule="evenodd" fill-rule="evenodd"></path><path fill="#00067F" d="M24.2071 40.43L19.4928 36.5014L23.5669 33.1063C23.9378 32.7973 24.4764 32.7973 24.8473 33.1063L28.9214 36.5014L24.2071 40.43Z"></path><path fill="#00067F" d="M24.8473 29.0755C24.4764 28.7665 23.9378 28.7665 23.5669 29.0755L17.0744 34.486L13.3399 31.3739L21.6463 24.4518C23.1297 23.2157 25.2845 23.2157 26.7678 24.4518L35.0743 31.3739L31.3398 34.486L24.8473 29.0755Z" clip-rule="evenodd" fill-rule="evenodd"></path><path fill="#00067F" d="M48.207 20.43L43.4928 16.5014L39.7004 19.6618C39.2206 20.0616 39.2206 20.7984 39.7004 21.1982L43.4928 24.3586L48.207 20.43Z"></path><path fill="#00067F" d="M34.8634 21.1982C34.3837 20.7984 34.3837 20.0616 34.8634 19.6618L41.0743 14.486L37.3398 11.3739L30.16 17.3571C28.241 18.9563 28.241 21.9037 30.16 23.5029L37.3398 29.4861L41.0743 26.374L34.8634 21.1982Z" clip-rule="evenodd" fill-rule="evenodd"></path><path fill="#00067F" d="M0.207031 20.4301L4.9213 24.3587L8.71371 21.1983C9.19346 20.7985 9.19346 20.0617 8.71371 19.6619L4.9213 16.5015L0.207031 20.4301Z"></path><path fill="#00067F" d="M13.5506 19.6619C14.0304 20.0617 14.0304 20.7985 13.5506 21.1983L7.33976 26.3741L11.0742 29.4862L18.254 23.503C20.173 21.9038 20.173 18.9564 18.254 17.3572L11.0742 11.374L7.33976 14.4861L13.5506 19.6619Z" clip-rule="evenodd" fill-rule="evenodd"></path></g>
        <g transform="translate(55, 8.5)" id="logotype" style="opacity: 1;"><path d="M16.85 26.39Q14.12 26.39 12.04 25.27Q9.96 24.14 8.80 22.13Q7.65 20.12 7.65 17.49L7.65 17.49L7.65 10.00Q7.65 7.41 8.80 5.42Q9.96 3.42 12.04 2.32Q14.12 1.22 16.85 1.22L16.85 1.22Q19.62 1.22 21.70 2.32Q23.78 3.42 24.94 5.42Q26.09 7.41 26.09 10.00L26.09 10.00L26.09 17.49Q26.09 20.12 24.94 22.15Q23.78 24.18 21.70 25.28Q19.62 26.39 16.85 26.39L16.85 26.39ZM16.85 22.15Q18.77 22.15 19.97 20.93Q21.16 19.70 21.16 17.67L21.16 17.67L21.16 9.97Q21.16 7.94 19.98 6.70Q18.81 5.45 16.85 5.45L16.85 5.45Q14.93 5.45 13.75 6.70Q12.58 7.94 12.58 9.97L12.58 9.97L12.58 17.67Q12.58 19.70 13.75 20.93Q14.93 22.15 16.85 22.15L16.85 22.15ZM37.36 7.76Q38.62 7.76 39.36 8.25L39.36 8.25Q39.64 8.39 39.57 8.78L39.57 8.78L38.83 12.77Q38.80 13.19 38.34 13.01L38.34 13.01Q37.82 12.84 37.12 12.84L37.12 12.84Q36.84 12.84 36.34 12.91L36.34 12.91Q35.09 13.01 34.21 13.84Q33.34 14.66 33.34 16.02L33.34 16.02L33.34 25.58Q33.34 25.75 33.21 25.88Q33.09 26 32.92 26L32.92 26L28.82 26Q28.65 26 28.52 25.88Q28.40 25.75 28.40 25.58L28.40 25.58L28.40 8.43Q28.40 8.25 28.52 8.13Q28.65 8.01 28.82 8.01L28.82 8.01L32.92 8.01Q33.09 8.01 33.21 8.13Q33.34 8.25 33.34 8.43L33.34 8.43L33.34 9.76Q33.34 9.86 33.41 9.90Q33.48 9.93 33.51 9.86L33.51 9.86Q34.95 7.76 37.36 7.76L37.36 7.76ZM56.58 12.59Q57.24 14.41 57.24 16.93L57.24 16.93Q57.24 19.35 56.64 21.17L56.64 21.17Q55.84 23.55 54.07 24.91Q52.30 26.28 49.89 26.28L49.89 26.28Q47.34 26.28 45.87 24.36L45.87 24.36Q45.80 24.29 45.73 24.30Q45.66 24.32 45.66 24.43L45.66 24.43L45.66 25.58Q45.66 25.75 45.53 25.88Q45.41 26 45.23 26L45.23 26L41.14 26Q40.96 26 40.84 25.88Q40.72 25.75 40.72 25.58L40.72 25.58L40.72 1.92Q40.72 1.74 40.84 1.62Q40.96 1.50 41.14 1.50L41.14 1.50L45.23 1.50Q45.41 1.50 45.53 1.62Q45.66 1.74 45.66 1.92L45.66 1.92L45.66 9.41Q45.66 9.51 45.73 9.55Q45.80 9.58 45.87 9.48L45.87 9.48Q47.23 7.73 49.75 7.73L49.75 7.73Q52.30 7.73 54.04 9.04Q55.77 10.35 56.58 12.59L56.58 12.59ZM51.39 20.54Q52.13 19.21 52.13 17.04L52.13 17.04Q52.13 14.62 51.29 13.33L51.29 13.33Q50.45 11.96 48.80 11.96L48.80 11.96Q47.27 11.96 46.46 13.33L46.46 13.33Q45.69 14.66 45.69 17.00L45.69 17.00Q45.69 19.35 46.39 20.54L46.39 20.54Q47.23 22.04 48.84 22.04L48.84 22.04Q50.55 22.04 51.39 20.54L51.39 20.54ZM61.97 5.98Q60.77 5.98 59.99 5.19Q59.20 4.40 59.20 3.21L59.20 3.21Q59.20 1.99 59.97 1.22Q60.74 0.45 61.97 0.45L61.97 0.45Q63.19 0.45 63.96 1.22Q64.73 1.99 64.73 3.21L64.73 3.21Q64.73 4.40 63.94 5.19Q63.16 5.98 61.97 5.98L61.97 5.98ZM59.87 26Q59.69 26 59.57 25.88Q59.45 25.75 59.45 25.58L59.45 25.58L59.45 8.39Q59.45 8.22 59.57 8.10Q59.69 7.97 59.87 7.97L59.87 7.97L63.96 7.97Q64.14 7.97 64.26 8.10Q64.38 8.22 64.38 8.39L64.38 8.39L64.38 25.58Q64.38 25.75 64.26 25.88Q64.14 26 63.96 26L63.96 26L59.87 26ZM77.40 11.54Q77.40 11.72 77.28 11.84Q77.16 11.96 76.98 11.96L76.98 11.96L73.62 11.96Q73.44 11.96 73.44 12.14L73.44 12.14L73.44 19.56Q73.44 20.71 73.92 21.27Q74.39 21.84 75.44 21.84L75.44 21.84L76.59 21.84Q76.77 21.84 76.89 21.96Q77.02 22.08 77.02 22.25L77.02 22.25L77.02 25.58Q77.02 25.96 76.59 26.04L76.59 26.04Q75.13 26.11 74.49 26.11L74.49 26.11Q71.59 26.11 70.16 25.14Q68.72 24.18 68.69 21.52L68.69 21.52L68.69 12.14Q68.69 11.96 68.51 11.96L68.51 11.96L66.52 11.96Q66.34 11.96 66.22 11.84Q66.09 11.72 66.09 11.54L66.09 11.54L66.09 8.43Q66.09 8.25 66.22 8.13Q66.34 8.01 66.52 8.01L66.52 8.01L68.51 8.01Q68.69 8.01 68.69 7.83L68.69 7.83L68.69 3.67Q68.69 3.49 68.81 3.37Q68.93 3.25 69.10 3.25L69.10 3.25L73.02 3.25Q73.20 3.25 73.32 3.37Q73.44 3.49 73.44 3.67L73.44 3.67L73.44 7.83Q73.44 8.01 73.62 8.01L73.62 8.01L76.98 8.01Q77.16 8.01 77.28 8.13Q77.40 8.25 77.40 8.43L77.40 8.43L77.40 11.54ZM92.55 1.92Q92.55 1.74 92.68 1.62Q92.80 1.50 92.97 1.50L92.97 1.50L97.07 1.50Q97.24 1.50 97.37 1.62Q97.49 1.74 97.49 1.92L97.49 1.92L97.49 25.58Q97.49 25.75 97.37 25.88Q97.24 26 97.07 26L97.07 26L92.97 26Q92.80 26 92.68 25.88Q92.55 25.75 92.55 25.58L92.55 25.58L92.55 15.92Q92.55 15.74 92.38 15.74L92.38 15.74L84.64 15.74Q84.47 15.74 84.47 15.92L84.47 15.92L84.47 25.58Q84.47 25.75 84.35 25.88Q84.22 26 84.05 26L84.05 26L79.95 26Q79.78 26 79.66 25.88Q79.53 25.75 79.53 25.58L79.53 25.58L79.53 1.92Q79.53 1.74 79.66 1.62Q79.78 1.50 79.95 1.50L79.95 1.50L84.05 1.50Q84.22 1.50 84.35 1.62Q84.47 1.74 84.47 1.92L84.47 1.92L84.47 11.33Q84.47 11.51 84.64 11.51L84.64 11.51L92.38 11.51Q92.55 11.51 92.55 11.33L92.55 11.33L92.55 1.92ZM102.70 5.98Q101.52 5.98 100.73 5.19Q99.94 4.40 99.94 3.21L99.94 3.21Q99.94 1.99 100.71 1.22Q101.48 0.45 102.70 0.45L102.70 0.45Q103.93 0.45 104.70 1.22Q105.47 1.99 105.47 3.21L105.47 3.21Q105.47 4.40 104.68 5.19Q103.89 5.98 102.70 5.98L102.70 5.98ZM100.60 26Q100.43 26 100.31 25.88Q100.18 25.75 100.18 25.58L100.18 25.58L100.18 8.39Q100.18 8.22 100.31 8.10Q100.43 7.97 100.60 7.97L100.60 7.97L104.70 7.97Q104.88 7.97 105.00 8.10Q105.12 8.22 105.12 8.39L105.12 8.39L105.12 25.58Q105.12 25.75 105.00 25.88Q104.88 26 104.70 26L104.70 26L100.60 26ZM116.77 7.76Q118.03 7.76 118.77 8.25L118.77 8.25Q119.05 8.39 118.98 8.78L118.98 8.78L118.24 12.77Q118.21 13.19 117.75 13.01L117.75 13.01Q117.23 12.84 116.53 12.84L116.53 12.84Q116.25 12.84 115.76 12.91L115.76 12.91Q114.50 13.01 113.62 13.84Q112.75 14.66 112.75 16.02L112.75 16.02L112.75 25.58Q112.75 25.75 112.63 25.88Q112.50 26 112.33 26L112.33 26L108.23 26Q108.06 26 107.94 25.88Q107.81 25.75 107.81 25.58L107.81 25.58L107.81 8.43Q107.81 8.25 107.94 8.13Q108.06 8.01 108.23 8.01L108.23 8.01L112.33 8.01Q112.50 8.01 112.63 8.13Q112.75 8.25 112.75 8.43L112.75 8.43L112.75 9.76Q112.75 9.86 112.82 9.90Q112.89 9.93 112.92 9.86L112.92 9.86Q114.36 7.76 116.77 7.76L116.77 7.76ZM135.53 15.15Q135.75 16.48 135.67 18.13L135.67 18.13Q135.64 18.54 135.22 18.54L135.22 18.54L124.40 18.54Q124.19 18.54 124.26 18.72L124.26 18.72Q124.37 19.42 124.65 20.12L124.65 20.12Q125.56 22.08 128.36 22.08L128.36 22.08Q130.60 22.04 131.89 20.26L131.89 20.26Q132.03 20.05 132.21 20.05L132.21 20.05Q132.31 20.05 132.45 20.19L132.45 20.19L134.97 22.68Q135.15 22.85 135.15 22.99L135.15 22.99Q135.15 23.06 135.01 23.27L135.01 23.27Q133.85 24.70 132.03 25.49Q130.22 26.28 128.04 26.28L128.04 26.28Q125.03 26.28 122.95 24.91Q120.87 23.55 119.96 21.10L119.96 21.10Q119.22 19.35 119.22 16.52L119.22 16.52Q119.22 14.59 119.75 13.12L119.75 13.12Q120.55 10.63 122.57 9.16Q124.58 7.69 127.34 7.69L127.34 7.69Q130.84 7.69 132.96 9.72Q135.08 11.75 135.53 15.15L135.53 15.15ZM127.38 11.96Q125.17 11.96 124.47 14.03L124.47 14.03Q124.33 14.48 124.23 15.15L124.23 15.15Q124.23 15.32 124.40 15.32L124.40 15.32L130.46 15.32Q130.67 15.32 130.60 15.15L130.60 15.15Q130.42 14.13 130.42 14.17L130.42 14.17Q130.11 13.12 129.32 12.54Q128.53 11.96 127.38 11.96L127.38 11.96Z" fill="#152c84"></path></g>
        
      </svg>